<svg xmlns="http://www.w3.org/2000/svg" width="48" height="48" viewBox="0 0 48 48">
	<path d="M0,0h48v48H0V0z M18,29h4v11l6.9-13H19L18,29z M26,25V14l-5.9,11L19,27h9.9l1.1-2H26z" fill="none" />
	<path d="M28.9,27L22,40V29h-4l1.1-2H14v14.3c0,1.5,1.2,2.7,2.7,2.7h14.7c1.5,0,2.7-1.2,2.7-2.7V27
	C34,27,28.9,27,28.9,27z"/>
	<path d="M25,7v1v1.5l-1.6,3.1L17,24.5V11h3h3V8V7H25 M31,11v11h-1h-1v-8v-3H31 M28,4h-8v4h-3.3
		C15.2,8,14,9.2,14,10.7v21.5l5.1-5.2L26,14v11h4l-1.1,2l5.1,5.9V10.7C34,9.2,32.8,8,31.3,8H28V4L28,4z"/>
</svg>
